<?xml version="1.0" encoding="UTF-8" standalone="no"?><!-- Generator: Gravit.io --><svg xmlns="http://www.w3.org/2000/svg" xmlns:xlink="http://www.w3.org/1999/xlink" style="isolation:isolate" viewBox="0 0 730.404 1085" width="730.404pt" height="1085pt"><defs><clipPath id="_clipPath_apFxcIKb2J29JFKlYosGmCUQXTPc0C7T"><rect width="730.404" height="1085"/></clipPath></defs><g clip-path="url(#_clipPath_apFxcIKb2J29JFKlYosGmCUQXTPc0C7T)"><clipPath id="_clipPath_lVpf7dzry5JkHCeWhlFvpdMBk3WLSYqW"><rect x="0" y="0" width="730.404" height="1085" transform="matrix(1,0,0,1,0,0)" fill="rgb(255,255,255)"/></clipPath><g clip-path="url(#_clipPath_lVpf7dzry5JkHCeWhlFvpdMBk3WLSYqW)"><g><path d=" M 79.785 110.422 L 79.785 76.58 C 79.785 61.91 67.875 50 53.205 50 L 24.58 50 C 9.91 50 -2 61.91 -2 76.58 L -2 141.814 C -2 151.372 3.056 159.759 10.638 164.443 L 10.638 188.079 L 10.638 188.079 L -5.675 188.079 Q -21.549 672.679 37.275 690.42 C 88.584 705.892 258.518 667.025 359.968 617.496 L 359.968 617.496 L 369.485 823.138 L 441.109 823.138 L 441.109 836.989 L 370.127 836.989 L 377.392 993.968 L 418.024 993.968 L 418.024 1005.511 L 457.269 1005.511 L 457.269 1014.745 L 418.024 1014.745 L 418.024 1014.745 L 418.024 1072.457 L 441.109 1072.457 L 441.109 1107.085 L 476.787 1107.085 L 476.787 1084 L 491.897 1084 L 491.897 1107.085 L 547.301 1107.085 L 547.301 1044.755 L 547.301 1044.755 L 476.787 1044.755 L 476.787 1030.904 L 547.301 1030.904 L 547.301 1014.745 L 568.077 1014.745 L 568.077 1030.904 L 604.84 1030.904 L 607.696 970.883 L 607.696 970.883 L 607.696 970.883 L 607.696 970.883 L 607.696 970.883 L 607.696 970.883 L 577.311 970.883 L 577.311 961.649 L 608.135 961.649 L 614.829 820.83 L 598.088 820.83 L 598.088 795.436 L 616.037 795.436 L 623.762 632.975 Q 631.519 684.214 637.995 776.968 L 653.492 776.968 L 653.492 797.745 L 639.397 797.745 L 639.397 797.745 Q 644.014 868.667 647.952 961.649 L 671.96 961.649 L 671.96 993.968 L 716.318 993.968 Q 714.612 940.658 713.006 893.548 L 671.96 893.548 L 671.96 828.91 L 710.739 828.91 Q 700.858 554.772 695.045 536.883 Q 686.075 509.268 591.748 502.961 C 583.229 498.809 573.587 496.484 563.294 496.484 L 533.45 496.484 L 533.45 496.484 L 533.45 459.88 L 533.45 454.839 L 533.45 454.839 L 533.45 448.645 L 533.45 448.645 C 569.637 430.731 596.751 390.049 599.81 342.779 L 602.81 296.417 C 604.436 294.324 606.011 292.185 607.533 290.002 L 656.156 290.002 L 656.156 286.253 L 650.607 286.253 L 650.607 283.752 L 656.156 283.752 L 656.156 276.88 L 693.891 276.88 L 693.891 260.012 L 625.081 260.012 L 625.081 257.081 C 625.51 255.981 625.928 254.875 626.333 253.763 L 693.891 253.763 L 693.891 243.767 L 668.366 243.767 L 668.366 232.52 L 693.891 232.52 L 693.891 223.773 L 634.108 223.773 C 634.764 219.66 635.27 215.493 635.617 211.277 L 693.891 211.277 L 693.891 197.532 L 636.18 197.532 C 636.18 156.938 621.56 119.975 597.647 92.385 L 597.647 92.385 C 597.757 91.276 597.801 90.157 597.801 89.032 C 597.801 52.083 550.347 22.085 491.898 22.085 C 433.448 22.085 385.995 52.083 385.995 89.032 C 385.995 90.157 386.039 91.276 386.148 92.385 C 362.236 119.975 347.616 156.938 347.616 197.532 L 315.429 197.532 L 315.429 201.281 L 347.657 201.281 C 347.732 204.64 347.907 207.973 348.179 211.277 L 315.429 211.277 L 315.429 232.52 L 340.957 232.52 L 340.957 243.767 L 289.902 243.767 L 289.902 260.012 L 303.222 260.012 L 303.222 268.759 L 289.902 268.759 L 289.902 276.88 L 340.957 276.88 L 340.957 290.002 L 376.262 290.002 L 376.262 290.002 C 378.031 292.539 379.872 295.017 381.78 297.431 L 385.006 342.827 C 388.312 389.342 414.886 429.473 450.343 447.795 L 450.343 454.839 L 450.343 459.88 L 450.343 459.88 L 450.343 459.88 L 450.343 459.88 L 450.343 496.484 L 450.343 496.484 L 450.343 496.484 L 450.343 496.484 L 421.323 496.484 C 406.232 496.484 392.531 501.482 381.719 509.911 L 381.719 509.911 Q 116.735 622.77 91.43 580.745 Q 65.286 537.326 69.021 188.079 L 65.843 188.079 L 65.843 165.199 L 65.843 165.199 C 69.75 163.081 73.069 160.012 75.489 156.305 C 76.769 155.464 77.857 154.292 78.609 152.834 L 97.313 116.581 C 99.642 112.067 97.868 106.513 93.355 104.185 L 93.355 104.185 C 88.843 101.856 83.289 103.63 80.961 108.143 L 79.785 110.422 Z  M 547.301 910.862 L 568.077 910.862 L 568.077 927.021 L 547.301 927.021 L 547.301 910.862 L 547.301 910.862 L 547.301 910.862 L 547.301 910.862 L 547.301 910.862 L 547.301 910.862 L 547.301 910.862 L 547.301 910.862 L 547.301 910.862 L 547.301 910.862 L 547.301 910.862 L 547.301 910.862 L 547.301 910.862 L 547.301 910.862 L 547.301 910.862 Z  M 418.024 970.883 L 424.95 970.883 L 424.95 980.117 L 418.024 980.117 L 418.024 970.883 L 418.024 970.883 L 418.024 970.883 L 418.024 970.883 L 418.024 970.883 L 418.024 970.883 L 418.024 970.883 L 418.024 970.883 L 418.024 970.883 L 418.024 970.883 L 418.024 970.883 L 418.024 970.883 L 418.024 970.883 L 418.024 970.883 Z  M 399.556 871.617 L 441.109 871.617 L 441.109 878.543 L 399.556 878.543 L 399.556 871.617 L 399.556 871.617 L 399.556 871.617 L 399.556 871.617 L 399.556 871.617 L 399.556 871.617 L 399.556 871.617 L 399.556 871.617 L 399.556 871.617 L 399.556 871.617 L 399.556 871.617 L 399.556 871.617 L 399.556 871.617 Z  M 508.056 984.734 L 512.673 984.734 L 512.673 1014.745 L 508.056 1014.745 L 508.056 984.734 L 508.056 984.734 L 508.056 984.734 L 508.056 984.734 L 508.056 984.734 L 508.056 984.734 L 508.056 984.734 L 508.056 984.734 L 508.056 984.734 L 508.056 984.734 L 508.056 984.734 L 508.056 984.734 Z " fill-rule="evenodd" fill="rgb(91,91,91)"/><g><g><rect x="14.269" y="133.894" width="62.33" height="50.787" transform="matrix(1,0,0,1,0,0)" fill="rgb(232,191,150)"/><path d=" M 30.011 18.468 L 62.33 18.468 C 78.893 18.468 92.34 31.915 92.34 48.479 L 92.34 122.132 C 92.34 138.695 78.893 152.142 62.33 152.142 L 30.011 152.142 C 13.447 152.142 0 138.695 0 122.132 L 0 48.479 C 0 31.915 13.447 18.468 30.011 18.468 Z " fill="rgb(255,222,190)"/><path d=" M 413.641 480.17 Q 131.659 602.078 105.515 558.66 Q 79.371 515.241 83.106 165.993 L 8.41 165.993 Q -7.463 650.594 51.36 668.335 C 110.185 686.073 324.939 632.387 413.641 573.095 L 413.641 480.17 Z " fill="rgb(25,25,25)"/><path d=" M 107.662 79.646 L 107.662 79.646 C 112.757 82.275 114.761 88.545 112.131 93.642 L 91.013 134.575 C 88.384 139.672 82.114 141.673 77.019 139.044 L 77.019 139.044 C 71.924 136.417 69.92 130.145 72.55 125.05 L 93.668 84.115 C 96.297 79.02 102.567 77.017 107.662 79.646 Z " fill="rgb(255,222,190)"/><path d=" M 653.482 775.66 Q 658.099 846.582 662.037 939.564 L 686.045 939.564 L 686.045 971.883 L 730.404 971.883 Q 728.698 918.573 727.091 871.463 L 686.045 871.463 L 686.045 806.824 L 724.824 806.824 Q 714.943 532.687 709.131 514.798 Q 699.599 485.457 593.705 480.17 L 626.024 558.66 Q 594.476 480.939 626.024 558.66 Q 640.946 595.416 652.08 754.883 L 667.577 754.883 L 667.577 775.66 L 653.482 775.66 Z " fill-rule="evenodd" fill="rgb(25,25,25)"/></g><g><path d=" M 561.386 888.777 L 582.163 888.777 L 582.163 904.936 L 561.386 904.936 L 561.386 888.777 L 561.386 888.777 L 561.386 888.777 L 561.386 888.777 Z  M 432.109 948.798 L 439.035 948.798 L 439.035 958.032 L 432.109 958.032 L 432.109 948.798 L 432.109 948.798 L 432.109 948.798 Z  M 413.641 849.532 L 455.194 849.532 L 455.194 856.457 L 413.641 856.457 L 413.641 849.532 L 413.641 849.532 Z  M 621.781 948.798 L 618.926 1008.819 L 582.163 1008.819 L 582.163 992.66 L 561.386 992.66 L 561.386 1008.819 L 490.872 1008.819 L 490.872 1022.67 L 561.386 1022.67 L 561.386 1022.67 L 561.386 1085 L 505.982 1085 L 505.982 1061.915 L 490.872 1061.915 L 490.872 1085 L 455.194 1085 L 455.194 1050.372 L 432.109 1050.372 L 432.109 992.66 L 432.109 992.66 L 471.354 992.66 L 471.354 983.426 L 432.109 983.426 L 432.109 971.883 L 391.477 971.883 L 384.212 814.904 L 455.194 814.904 L 455.194 801.053 L 383.571 801.053 L 371.548 541.286 C 369.837 504.37 398.454 474.399 435.408 474.399 L 577.379 474.399 C 614.334 474.399 642.913 504.368 641.156 541.281 L 630.122 773.351 L 612.173 773.351 L 612.173 798.745 L 628.915 798.745 L 622.22 939.564 L 591.397 939.564 L 591.397 948.798 L 621.781 948.798 L 621.781 948.798 L 621.781 948.798 L 621.781 948.798 L 621.781 948.798 Z  M 522.141 962.649 L 526.758 962.649 L 526.758 992.66 L 522.141 992.66 L 522.141 962.649 Z " fill-rule="evenodd" fill="rgb(0,0,0)"/><g><path d=" M 505.451 530.957 L 534.884 572.582 L 505.451 614.207 L 479.697 572.582 L 505.451 530.957 Z " fill="rgb(255,0,0)"/><path d=" M 505.465 610.529 L 505.465 610.529 L 536.027 929.697 L 505.465 960.922 L 475.936 929.697 L 505.465 610.529 Z " fill="rgb(255,0,0)"/><mask id="_mask_fvi4n3d5pfSMFcOLCP4DoUeIDzZYWsRj" x="-200%" y="-200%" width="400%" height="400%"><rect x="-200%" y="-200%" width="400%" height="400%" style="fill:white;"/><line x1="519.833" y1="868" x2="525.969" y2="921.096" fill="black" stroke="none"/></mask><line x1="519.833" y1="868" x2="525.969" y2="921.096" mask="url(#_mask_fvi4n3d5pfSMFcOLCP4DoUeIDzZYWsRj)" vector-effect="non-scaling-stroke" stroke-width="10" stroke="rgb(255,81,81)" stroke-opacity="100" stroke-linejoin="miter" stroke-linecap="round" stroke-miterlimit="3"/></g><path d=" M 494.716 557.388 C 470.327 553.604 448.848 536.265 449.423 505.388 Q 449.98 494.058 452.886 487.096 C 455.795 480.133 458.856 474.399 464.428 474.399 L 546.371 474.399 C 551.946 474.399 555.94 481.239 559.077 487.096 Q 562.217 492.952 562.54 505.388 C 562.009 535.572 540.909 552.807 517.076 557.108 L 515.973 555.197 L 505.977 537.883 L 495.981 555.197 L 494.716 557.388 Z " fill-rule="evenodd" fill="rgb(255,255,255)"/></g><g><path d=" M 505.982 390.138 L 505.982 390.138 C 528.917 390.138 547.535 409.232 547.535 432.753 L 547.535 488.342 C 547.535 511.864 528.917 530.957 505.982 530.957 L 505.982 530.957 C 483.049 530.957 464.428 511.864 464.428 488.342 L 464.428 432.753 C 464.428 409.232 483.049 390.138 505.982 390.138 Z " fill="rgb(255,216,176)"/><path d=" M 547.535 437.795 L 547.535 421.107 C 547.535 395.734 528.917 375.133 505.982 375.133 L 505.982 375.133 C 483.049 375.133 464.428 395.734 464.428 421.107 L 464.428 437.795 C 474.277 449.566 489.238 457.085 505.982 457.085 C 522.728 457.085 537.689 449.566 547.535 437.795 Z " fill-rule="evenodd" fill="rgb(208,174,140)"/></g><g><ellipse vector-effect="non-scaling-stroke" cx="505.9827497245392" cy="175.44680851063822" rx="144.281914893617" ry="154.67021276595744" fill="rgb(0,0,0)"/><path d=" M 495.93 53.096 L 515.357 53.096 C 579.298 53.096 627.86 104.901 623.73 168.711 L 613.895 320.694 C 609.765 384.503 561.804 436.309 506.859 436.309 L 506.859 436.309 C 451.912 436.309 403.625 384.526 399.091 320.742 L 388.285 168.662 C 383.753 104.878 431.987 53.096 495.93 53.096 Z " fill="rgb(255,223,192)"/><path d=" M 355.042 267.917 L 670.241 267.917 L 670.241 264.167 L 664.692 264.167 L 664.692 261.667 L 670.241 261.667 L 670.241 254.795 L 707.976 254.795 L 707.976 237.927 L 639.167 237.927 L 639.167 231.678 L 707.976 231.678 L 707.976 221.682 L 682.451 221.682 L 682.451 210.435 L 707.976 210.435 L 707.976 201.688 L 625.849 201.688 L 625.849 189.192 L 707.976 189.192 L 707.976 175.447 L 329.514 175.447 L 329.514 179.196 L 373.909 179.196 L 373.909 189.192 L 329.514 189.192 L 329.514 210.435 L 355.042 210.435 L 355.042 221.682 L 303.987 221.682 L 303.987 237.927 L 317.307 237.927 L 317.307 246.674 L 303.987 246.674 L 303.987 254.795 L 355.042 254.795 L 355.042 267.917 Z " fill-rule="evenodd" fill="rgb(0,0,0)"/><g><ellipse vector-effect="non-scaling-stroke" cx="505.9827497245392" cy="66.94680851063822" rx="105.90292553191486" ry="66.9468085106383" fill="rgb(0,0,0)"/></g><g><circle vector-effect="non-scaling-stroke" cx="498.23518299982425" cy="275.11838663214985" r="5.381396982926788" fill="rgb(255,166,141)"/><circle vector-effect="non-scaling-stroke" cx="513.7303164492546" cy="275.11838663214985" r="5.381396982926759" fill="rgb(255,166,141)"/></g><g><path d=" M 547.768 341.66 C 545.284 368.247 527.511 388.889 505.982 388.889 C 484.455 388.889 466.682 368.247 464.195 341.66 L 547.768 341.66 Z " fill-rule="evenodd" fill="rgb(183,104,91)"/><path d=" M 546.247 350.894 C 546.96 347.916 547.473 344.831 547.768 341.66 L 464.195 341.66 C 464.493 344.831 465.006 347.916 465.719 350.894 L 546.247 350.894 Z " fill-rule="evenodd" fill="rgb(255,255,255)"/><path d=" M 526.8 381.592 C 520.588 386.237 513.353 388.889 505.638 388.889 C 498.211 388.889 491.23 386.433 485.166 382.135 C 487.218 372.494 495.794 365.276 506.044 365.276 C 516.1 365.276 524.544 372.224 526.8 381.592 Z " fill-rule="evenodd" fill="rgb(255,145,131)"/></g></g></g></g><path d=" M 538 29 Q 567.828 27.234 577 47" fill="none" vector-effect="non-scaling-stroke" stroke-width="6" stroke="rgb(94,94,94)" stroke-linejoin="miter" stroke-linecap="round" stroke-miterlimit="3"/></g></g></svg>